<svg width="20" height="20" viewBox="0 0 20 20" fill="none" xmlns="http://www.w3.org/2000/svg">
<path d="M5.16661 2.03333L15.0833 11.95L16.8499 10.1833L18.0249 11.3583L15.9666 13.4167L18.6166 16.0667C18.9416 16.3917 18.9416 16.9167 18.6166 17.2417L18.0249 17.8333C17.6999 18.1583 17.1749 18.1583 16.8499 17.8333L14.1666 15.1917L12.1333 17.25L10.9583 16.075L12.7249 14.3083L2.80828 4.39167V2.03333H5.16661ZM13.2416 8.33333L17.1916 4.38333V2.03333H14.8333L10.8833 5.98333L13.2416 8.33333ZM9.11661 12.5L6.75828 10.1083L4.91661 11.95L3.14994 10.1833L1.97494 11.3583L4.03328 13.4167L1.38328 16.075C1.05828 16.4 1.05828 16.925 1.38328 17.25L1.97494 17.8417C2.29994 18.1667 2.82494 18.1667 3.14994 17.8417L5.83328 15.1917L7.86661 17.25L9.04161 16.075L7.27494 14.3083L9.11661 12.5Z" fill="white"/>
</svg>
